<svg xmlns="http://www.w3.org/2000/svg" height="209.56" viewBox="0 0 250 209.56354" width="250"><g transform="matrix(1.25 0 0 -1.25 -594.05 1062.9)"><g><path d="m662.4 816.88 12.154 3.9512-4.1857 2.906c-23.416 16.274-56.586 25.604-91.01 25.604-35.647 0-69.607-9.8958-93.181-27.148l-10.023-7.7647 11.854-3.8492v-23.381l-10.13-23.009 27.23 18.155c8.4275 5.6744 11.354 10.375 12.338 12.583 6.6176 3.0692 13.587 5.6081 20.801 7.627-1.035-1.4785-1.9526-3.0437-2.7378-4.7006-1.7232-1.2593-3.3802-2.7327-4.9351-4.3947-4.0226-4.2877-5.9803-10.033-5.5214-16.177 0.27531-3.6453 1.3816-7.0764 3.0641-9.702-1.3969-0.58631-3.4872-1.1114-6.3984-1.0401l-4.7363 0.12746 1.5703-4.4712c0.12745-0.35688 3.1049-8.3765 16.513-9.1259 0.34669-9.6766 4.3692-23.223 20.184-36.483 0.5965-4.3539 3.3037-17.1 14.821-22.427l4.6343-2.1413v0.37218c4.1143-3.9053 8.9169-5.9293 15.55-6.847l7.1325-0.97887-3.9614 6.0109c-7.9941 12.129 6.4748 24.513 7.0917 25.033 18.369 15.361 21.056 30.549 21.204 37.437 13.454 0.70356 16.539 8.5906 16.666 8.9424l1.6773 4.5222-4.823-0.12236c-3.2731-0.0867-5.496 0.57611-6.8776 1.244 7.3313 13.179 1.0859 24.553-7.8361 31.191-0.97888 1.6213-2.075 3.1508-3.2629 4.5936 7.0917-1.8048 13.964-4.1194 20.521-6.9337l-6.2403-2.5848 5.0932-2.4523c9.5542-4.6038 24.579-13.633 32.18-20.194l4.1806-3.6096v26.761l-10.599 6.0211v16.457z" fill="#a7a8aa"/><path d="m659.87 798.95v19.771l9.0546 2.9417c-22.249 15.463-54.139 25.15-89.567 25.15-36.565 0-69.362-10.319-91.683-26.659l-6.1944-4.7924 9.0597-2.9468v-25.746l-6.8572-15.565 20.011 13.342c10.579 7.1223 11.741 12.338 11.741 12.338 9.8346 4.6496 20.602 8.249 32.027 10.615-4.2928-3.2425-7.4027-7.2804-9.3554-11.701-1.6977-1.1675-3.4312-2.6358-5.1544-4.4712-7.6474-8.1573-4.721-20.551 0-24.278 0 0-3.1049-3.8798-11.318-3.6657 0 0 2.6409-7.5149 16.937-6.9745-0.10197-0.31609-0.25492-0.85651-0.26001-1.3561-0.0867-6.3933 1.3867-21.556 20.036-36.687 0 0 0.99417-15.545 13.092-21.143v4.7669c5.1595-8.4988 10.227-11.864 19.256-13.108-9.7275 14.765 7.7239 29.33 7.7239 29.33 23.167 19.374 19.878 38.181 19.878 38.181 14.296-0.54042 17.028 6.8317 17.028 6.8317-8.2184-0.21413-11.323 3.6657-11.323 3.6657 10.813 15.754-1.2746 26.465-5.9446 29.789-2.6613 4.6038-6.2607 8.4122-10.365 11.512 13.092-2.386 25.369-6.3831 36.437-11.716l-6.3984-2.6511c9.8142-4.7261 25.078-13.949 32.736-20.556v19.766l-10.599 6.016z" fill="#003865"/><path d="m603.49 799.43c-0.0561 0.0306-0.0918 0.0918-0.0816 0.15805 0.005 0.0612 0.0459 0.11726 0.10706 0.13765 1.3205 0.46904 2.7429 0.70866 4.2265 0.70866 1.657 0 2.9825-0.2906 3.6861-0.48943-11.339 13.159-30.345 13.699-32.92 13.709l2.5848-3.4719c0.0408-0.051 0.0459-0.12746 0.0102-0.18354-0.0357-0.0561-0.10196-0.0867-0.16824-0.0714-0.0306 0.005-2.9009 0.55572-7.0611 0.55572-7.8157 0-18.639-1.8456-26.164-10.538 0.70356 0.19883 2.0291 0.48943 3.6861 0.48943 1.4836 0 2.906-0.23962 4.2265-0.70866 0.0612-0.0204 0.10707-0.0765 0.11217-0.13765 0.005-0.0663-0.0306-0.12746-0.0867-0.15805-0.12236-0.0663-12.221-6.8062-11.833-14.27 0.20903-3.9359 3.8288-7.4129 10.762-10.334 0.0561-0.0255 0.0918-0.0765 0.0969-0.13766 0.005-0.0408 0.33139-4.0939-2.2432-6.9082-1.6416-1.7946-4.0888-2.7072-7.2651-2.7072-8.3408 0-11.145-3.6861-11.838-4.9046 0.51493 0.18864 1.5142 0.44865 3.0488 0.44865 2.7327 0 5.9395-0.81063 9.5389-2.4064 0.0408-0.0204 0.0714-0.0561 0.0867-0.10197 0.0153-0.0408 0.0102-0.0918-0.0153-0.13255-0.0357-0.0663-0.99416-1.6672-3.7218-1.7334 0.2957-2.0954 3.3496-21.464 13.98-22.876 0.2906 0.8922 2.1413 5.9752 7.5761 9.0801 0.0663 0.0408 0.15295 0.0255 0.20393-0.0306 0.051-0.0612 0.0561-0.14785 0.005-0.20903-0.0714-0.0969-7.311-9.5848-0.27531-18.165 0.0357-0.0459 0.0459-0.10197 0.0306-0.15805-0.0357-0.0969-3.1456-9.8142 4.6394-16.605-0.17844 1.2338-0.50983 4.7771 1.0859 7.9482 0.0255 0.0561 0.0816 0.0918 0.14275 0.0918h0.0204c0.0663-0.0102 0.12235-0.0561 0.13765-0.12236 0.0255-0.10196 2.5899-9.7632 9.4828-15.29-1.2542 2.6256-5.6183 12.771-2.024 20.169 1.9068 3.9206 5.7254 6.4901 11.354 7.6423-3.2629 0.70356-6.8164 1.0604-10.569 1.0604-7.5965 0-13.49-1.4785-13.551-1.4938-0.0408-0.0102-0.0918 0-0.12746 0.0204-0.0357 0.0255-0.0663 0.0663-0.0714 0.10706-1.4836 7.678 3.5739 10.829 3.6249 10.859 0.0408 0.0255 0.0969 0.0306 0.14275 0.0102 2.6256-1.0197 7.2141-2.233 8.9373-2.6001 0.54041-0.11216 1.0706-0.17334 1.5448-0.17334 0.55061 0 1.8252 0.0918 1.8252 0.93298 0 0.96868-0.92789 1.3103-0.96868 1.3256l-5.705 0.82592c-0.0459 0.005-5.4246 0.48434-5.603 5.2614-0.0459 1.3306 0.37218 2.4676 1.2491 3.3751 1.3307 1.3816 3.3955 1.8762 4.7516 1.8762 0.67297 0 1.2491-0.11726 1.6213-0.32119 0.20393-0.11726 0.40276-0.23453 0.60669-0.35179 0.8973-0.53532 1.8303-1.0859 3.0539-1.1471 1.2032 0.0612 2.1311 0.61179 3.0335 1.1471 0.20393 0.11726 0.40277 0.23453 0.6067 0.35179 0.36708 0.20393 0.93299 0.31609 1.5958 0.31609 0.85142 0 1.7844-0.17844 2.6205-0.49963 0.0663-0.0255 1.6111-0.57611 2.6103-2.1515 1.1369 2.126 3.0845 4.1041 5.7968 5.8936 4.5783 3.0182 5.6081 5.3073 5.6642 6.6941 0.0459 1.1318-0.53532 1.8558-0.79533 2.1209-1.8099-2.4421-4.0073-2.9621-5.5418-2.9621-1.0961 0-1.922 0.25492-2.1923 0.35178-2.4829-2.1617-5.3379-7.2141-5.3685-7.2651-0.0357-0.0663-0.11216-0.0969-0.18864-0.0765-0.0714 0.0204-0.11726 0.0867-0.11726 0.16315 0.0816 2.7633 1.9322 8.7079 2.1872 9.5287l-2.7327 3.3139c-0.051 0.0612-0.051 0.14275-0.0102 0.19883 0.0459 0.0612 0.12236 0.0867 0.19373 0.0612 0.78004-0.3059 1.5958-0.45885 2.437-0.45885 6.5156-0.005 12.603 9.0342 13.276 10.064 0.0204 0.0357 0.051 0.0612 0.0918 0.0714 1.2287 0.35688 2.0036 0.67298 2.0087 0.67808 6.9337 2.9213 10.553 6.3984 10.757 10.334 0.39256 7.469-11.706 14.204-11.828 14.27" fill="#ef5b0c"/><path d="m102.08 96.125c-0.09 0.025-0.15 0.114-0.15 0.203 0.35 7.532-6.512 11.332-6.582 11.372-0.096 0.05-0.133 0.17-0.082 0.27s0.172 0.14 0.267 0.09c0.013-0.01 0.968-0.46 2.358-0.46 1.631 0 4.029 0.63 6.199 3.69 2.28 3.21 5.1 3.88 7.06 3.88 1.36 0 2.39-0.32 2.73-0.44 3.95 3.67 6.77 10.36 6.79 10.43 0.04 0.08 0.11 0.12 0.2 0.12h0.03c0.1-0.02 0.17-0.11 0.17-0.21-0.16-6.49-2.45-12.39-2.82-13.28l3.42-4.14c0.06-0.07 0.05-0.17 0-0.25-0.05-0.07-0.15-0.1-0.24-0.07-1.02 0.41-2.1 0.61-3.2 0.61-8.31 0-15.85-11.612-15.92-11.733-0.05-0.076-0.15-0.107-0.23-0.082zm-6.387 16.625l-1.613 1.56c-8.807 8.94 5.086 13.73 8.06 17.62l2.4 3.63c2.59-15.89-10.924-7.54-8.847-22.81z" transform="matrix(.8 0 0 -.8 475.24 850.34)" fill="#003865"/><path d="m134.26 9.4707l0.12 2.4803 0.06 30.844 8.15 0.701-2.97-2.779-0.14-22.317 12.39 25.803 8.3 0.639 0.06-30.967 2.86-2.313-8.09-0.605-0.21 20.775-10.13-21.552-10.4-0.7093zm-3.98 0.1113l-1.3 0.0821-10.5 0.6759 2.65 2.219-7.86 11.521 0.18-10.904 2.65-2.69-13.42 0.746 1.79 2.512-0.05 28.358-2.64 2.689 14.27-0.885-2.68-2.351-0.06-10.33 6.99 10.056-2.06 2.49 14.56-0.917-2.66-2.434-11.58-16.129 8.78-11.893 2.94-2.816zm-29.96 1.893l-5.152 2.357c-1.026-0.503-2.538-0.853-4.807-0.299-7.564 1.861-13.681 11.821-13.515 21.074 0.025 1.434 0.286 6.379 2.619 9.674 1.497 2.091 5.543 4.749 10.558 3.526 2.556-0.625 4.176-1.85 5.247-2.946l4.722 0.077-0.174-11.26-3.855 0.943-0.184 0.828c-1.077 4.684-2.371 7.743-5.545 8.514-2.721 0.669-3.658-0.905-3.996-6.717-0.083-1.389-0.171-2.963-0.203-4.537-0.051-3.18 0.166-7.82 0.358-9.668 0.223-2.141 0.731-3.321 2.025-4.646 0.389-0.383 1.096-0.924 2.008-1.147 1.09-0.268 1.841-0.147 2.523 0.389 1.727 1.293 2.161 3.817 2.594 5.767l0.178 0.784 4.729-1.096-0.13-11.617zm63.3 0.367l2.57 3.109 0.04 28.494-2.5 1.932 22.39 5.283 1.23 0.279 0.03-0.912 0.36-8.373 0.04-1.008-1.34-0.31-1.28-0.301-1.13-0.267-0.13 0.822c-0.27 1.746-0.66 2.69-3.11 3.799-1.59 0.707-3.58 0.42-5.58 0.006l-0.2-11.243c4.33 1.02 5 4.424 5 4.424l1.59 0.375-0.05-12.93-1.63-0.369s-0.86 5.704-4.98 4.729l0.29-11.186c2.16 0.51 4.17 1.058 5.75 2.549 2.19 2.001 2.25 2.901 2.31 3.844l0.01 0.09 0.07 0.943 3.86 0.899-0.15-9.19-23.46-5.488zm-86.784 4.418l-11.145 4.078 2.95 1.459-0.012 21.879c-0.128 3.384-0.86 5.448-4.684 6.844-4.371 1.586-4.596-0.102-4.66-3.307 0 0.019-0.012-18.405-0.012-22.012l2.575-3.455-14.211 5.201 2.656 1.549 0.053 21.942c0.057 2.459 0.151 6.155 4.963 6.378 2.555 0.128 7.215-1.561 7.259-1.58 0.778-0.28 4.767-1.797 7.004-3.703 4.168-3.543 4.231-7.272 4.282-10 0-0.006 0.045-18.066 0.039-21.654l2.943-3.619zm112.36 1.97l2.55 3.461-0.05 28.512-2.57 1.549 24.25 9.139-0.14-10.452-3.75-1.408s-0.45 6.524-8.83 3.364l0.12-27.313 2.51-1.574-14.09-5.278zm25.26 8.676l2.55 4.002v39.231l-2.56 1.013 24.25 14.262-0.14-10.476-3.75-2.206s-0.44 6.431-8.83 1.504l0.06-38.025 2.52-1.039-14.1-8.266zm-171.21 2.858c-3.096-0.203-8.067 3.012-10.547 4.625l-0.019 0.013c-0.064 0.045-0.082 0.057-0.082 0.057l-12.084 8.105v0.079l2.607 0.929v38.479l-2.602 4.461 11.586-7.571c3.346-2.236 9.789-6.468 13.039-12.707 1.555-3.059 2.309-5.825 2.309-8.521-0.006-5.525-3.118-7.182-6.164-6.258 1.109-1.287 2.269-2.9 3.264-4.869 0.885-1.765 1.809-7.271 1.802-10.285 0-2.479-0.898-5.959-2.517-6.449-0.189-0.046-0.386-0.075-0.592-0.088zm-6.328 6.25c0.809 0.038 1.23 3.289 1.23 6.048-0.006 3.346-0.472 8.743-1.396 10.043-0.548 0.772-2.97 2.358-4.486 3.346l0.005-16.703c1.645-1.16 4.099-2.76 4.647-2.734zm0.543 20.709c0.343-0.045 0.609 0.017 0.789 0.207 0.771 0.854 0.822 3.995 0.828 6.666-0.006 3.479-0.511 5.863-1.543 7.297-0.701 0.962-3.333 2.645-5.264 3.849l-0.005-15.154c0.121-0.077 0.235-0.154 0.343-0.231 2.108-1.419 3.823-2.502 4.852-2.634zm42.398 17.879c-3.919 3.779-6.205 8.513-6.027 13.535 0.178 4.971 2.753 9.382 6.857 12.663 0.51 0.38 1.255 0.65 2.147 0.77 2.422 0.33 5.149-0.61 6.105-2.09 0.65-1.006 0.223-2.032-0.841-2.669-5.793-3.372-9.635-8.623-9.852-14.69-0.096-2.613 0.483-5.149 1.611-7.519zm100.6 0c1.13 2.37 1.71 4.906 1.62 7.519-0.22 6.067-4.06 11.318-9.86 14.69-1.06 0.637-1.49 1.663-0.84 2.669 0.95 1.48 3.69 2.42 6.11 2.09 0.89-0.12 1.63-0.39 2.14-0.77 4.11-3.281 6.68-7.692 6.86-12.663 0.18-5.022-2.11-9.756-6.03-13.535zm-24.79 29.248c-1.01 1.09-2.17 2.21-3.45 3.24 0.55 0.38 0.91 1.02 0.91 1.75 0 1.19-0.96 2.15-2.15 2.15-1.03 0-1.89-0.72-2.1-1.7-0.8 0.42-1.62 0.76-2.46 1.01 0.99 1.47 2.46 2.4 4.1 2.4 2.98 0 5.39-3.05 5.39-6.82 0-0.71-0.08-1.38-0.24-2.03zm-50.54 0.01c-0.16 0.63-0.24 1.31-0.24 2.02 0 3.77 2.42 6.81 5.39 6.81 1.65 0 3.11-0.93 4.1-2.39-0.84-0.25-1.66-0.59-2.45-1.01-0.21 0.97-1.08 1.7-2.11 1.7-1.19 0-2.15-0.96-2.15-2.15 0-0.73 0.36-1.37 0.91-1.75-1.28-1.03-2.44-2.15-3.45-3.23zm18.78 26.35c-0.55 0-1.01 0.09-1.39 0.25-0.37 0.16-0.67 0.38-0.91 0.65-0.47 0.53-0.7 1.24-0.78 1.92-0.03 0.17-0.04 0.34-0.05 0.5-0.05 0.99 0.14 1.81 0.14 1.81v-0.01 0.01c0.04-0.27 0.11-0.54 0.19-0.79 0.16-0.49 0.4-0.94 0.72-1.31 0.57-0.63 1.41-1.02 2.6-0.98 0.52 0.01 1.09 0.11 1.74 0.29h0.01c1.57 0.45 2.56 0.96 3.2 1.38 0.04 0.02 0.1 0.05 0.14 0.08 0.21 0.14 0.37 0.27 0.5 0.39 0.1 0.14 0.23 0.28 0.38 0.41h0.01c0.15-0.13 0.28-0.27 0.38-0.41 0.13-0.12 0.29-0.25 0.5-0.39 0.57-0.39 1.49-0.86 2.85-1.29 0.17-0.06 0.31-0.12 0.5-0.17 0.86-0.25 1.6-0.33 2.23-0.28 0.16 0.01 0.3 0.03 0.45 0.05 0.14 0.03 0.28 0.07 0.4 0.11 0.78 0.25 1.32 0.76 1.68 1.42 0.12 0.22 0.22 0.46 0.31 0.7 0.08 0.25 0.14 0.52 0.18 0.79v-0.01s0.01 0 0.01 0.01c0 0 0.08-0.37 0.12-0.9 0.03-0.4 0.03-0.9-0.03-1.41-0.03-0.17-0.06-0.34-0.1-0.51s-0.09-0.34-0.15-0.5c-0.13-0.33-0.3-0.64-0.54-0.91-0.12-0.13-0.25-0.26-0.4-0.37-0.16-0.11-0.32-0.2-0.51-0.28s-0.4-0.14-0.63-0.19c-0.23-0.04-0.48-0.06-0.76-0.06-0.27 0-0.57 0.02-0.9 0.07-1.59 0.23-2.79 0.56-3.7 0.9-0.9 0.34-1.5 0.7-1.89 0.99-0.2-0.14-0.45-0.31-0.76-0.47-0.31-0.17-0.69-0.35-1.14-0.52-0.23-0.09-0.47-0.17-0.74-0.25-0.26-0.09-0.55-0.17-0.85-0.24h-0.01c-0.3-0.08-0.63-0.15-0.98-0.22s-0.72-0.14-1.12-0.19h-0.01c-0.32-0.05-0.62-0.07-0.89-0.07zm-5.52 14.02c-1.14 0.62-1.75 1.29-2.1 2 1.79 0.18 5.3 0.52 6.6 0.99-1.49 0.02-4.84 0.46-7.08 0.92-0.06 0.54-0.1 1.09-0.19 1.66 11.03-1.55 17.85-1.55 30.29-0.12-0.05-0.46-0.22-1.05-0.49-1.7-2.18-0.39-4.95-0.74-6.26-0.76 1.04-0.38 3.51-0.67 5.38-0.86-0.46-0.68-1-1.33-1.64-1.86-7.97 3.23-16.53 2.07-24.51-0.27z" transform="matrix(.8 0 0 -.8 475.24 850.34)" fill="#fff"/><path d="m135.7 12.062l0.29 28.518 1.42 0.076-0.29-28.447-1.42-0.147zm-11.28 0.366l-1.43 0.082-10.35 14.81 9.88 13.326 1.3-0.05-9.63-13.383 10.23-14.785zm15.24 1.004l0.02 2.886 12.56 25.096 1.23 0.121-13.81-28.103zm-32.22 0.054l-1.44 0.082 0.1 28.112 1.41-0.039-0.07-28.155zm49.39 0.254l0.05 28.162 1.42 0.065-0.03-28.08-1.44-0.147zm11.02 1.721l0.15 28.156 1.42 0.299-0.14-28.072-1.43-0.383zm8.38 1.545s6.82 1.835 8.31 6.303c0 0 0.27-6.074-8.31-6.303zm-90.234 0.683c-4.295 3.907-7.381 10.642-7.285 16.569 0.025 1.408 0.307 6.233 2.85 9.394 0.758 0.937 2.331 1.79 4.134 2.504-1.249-0.752-2.014-1.925-2.568-2.785-2.058-3.263-2.306-8.086-2.338-9.494-0.102-5.748 1.944-12.44 5.207-16.188zm-14.547 2.832l-1.428 0.547 0.116 22.809c0.038 5.003-3.785 7.443-3.785 7.443 5.155-2.791 5.218-7.748 5.218-7.748l-0.121-23.051zm121.93 1.952l0.01 29.283 1.42 0.498v-29.207l-1.43-0.574zm-140.03 4.582l-1.434 0.541 0.189 23.414s0.122 4.901 5.303 4.556c0 0-3.842-0.114-3.881-5.123l-0.177-23.388zm165.2 4.925l0.21 39.799 1.43 0.795-0.21-39.715-1.43-0.879zm-179.05 1.041c-0.293-0.002-0.604 0.055-0.932 0.178 1.6-0.35 2.275 3.518 2.307 6.863 0.038 4.054-0.765 10.75-2.568 12.764 2.976-2.734 4.486-9.889 4.46-13.955-0.016-2.933-1.213-5.832-3.267-5.85zm-13.443 8.541l-1.428 0.918 0.183 38.245 1.442-0.938-0.197-38.225zm158.44 3.053c-1.3 3.652-8.12 1.453-8.12 1.453 9.41 5.232 8.12-1.453 8.12-1.453zm-144.37 9.385c-0.293 0.005-0.602 0.066-0.928 0.189 1.587-0.363 2.269 3.224 2.301 6.34 0.044 3.767-0.76 9.413-2.557 11.364 2.976-2.671 4.469-8.737 4.449-12.516-0.016-2.744-1.219-5.414-3.265-5.377zm171.98 0.482c-1.31 3.467-8.12 0.313-8.12 0.313 9.18 6.405 8.12-0.313 8.12-0.313zm15.31 21.653c10.72 9.1 9.19 0.681 9.19 0.681-1.48 3.773-9.19-0.681-9.19-0.681z" transform="matrix(.8 0 0 -.8 475.24 850.34)" fill="#ef5b0c"/></g></g></svg>
